<svg xmlns="http://www.w3.org/2000/svg" version="1.1" xmlns:xlink="http://www.w3.org/1999/xlink" xmlns:svgjs="http://svgjs.dev/svgjs" width="2000" height="1500" viewBox="0 0 2000 1500"><rect width="2000" height="1500" fill="#ffffff"></rect><g transform="matrix(0.75,0,0,0.75,249.090909090909,282.7536437246963)"><svg viewBox="0 0 396 247" data-background-color="#ffffff" preserveAspectRatio="xMidYMid meet" height="1247" width="2000" xmlns="http://www.w3.org/2000/svg" xmlns:xlink="http://www.w3.org/1999/xlink"><g id="tight-bounds" transform="matrix(1,0,0,1,0.2400000000000091,-0.09999999999999432)"><svg viewBox="0 0 395.52 247.2" height="247.2" width="395.52"><g><svg></svg></g><g><svg viewBox="0 0 395.52 247.2" height="247.2" width="395.52"><g transform="matrix(1,0,0,1,75.54432,96.40793169796206)"><svg viewBox="0 0 244.43135999999998 54.38413660407586" height="54.38413660407586" width="244.43135999999998"><g><svg viewBox="0 0 245.65351679999995 54.65605728709623" height="54.38413660407586" width="244.43135999999998"><g><rect width="245.65351679999995" height="1.674042846930727" x="0" y="30.036566376733003" fill="#99592a" opacity="1" stroke-width="0" stroke="transparent" fill-opacity="1" class="rect-r$-0" data-fill-palette-color="secondary" rx="1%" id="r$-0" data-palette-color="#99592a"></rect></g><g transform="matrix(1,0,0,1,0.6110783999999825,36.09292034128343)"><svg viewBox="0 0 244.43135999999998 18.563136945812804" height="18.563136945812804" width="244.43135999999998"><g id="textblocktransform"><svg viewBox="0 0 244.43135999999998 18.563136945812804" height="18.563136945812804" width="244.43135999999998" id="textblock"><g><svg viewBox="0 0 244.43135999999998 18.563136945812804" height="18.563136945812804" width="244.43135999999998"><g transform="matrix(1,0,0,1,0,0)"><svg width="244.43135999999998" viewBox="1.75 -35.4 487.17 37" height="18.563136945812804" data-palette-color="#2a160c"><path d="M1.75 0L12.3 0 12.3-2.5 8.25-2.5 8.25-16.4 29.1-16.4 29.1-2.5 25-2.5 25 0 35.6 0 35.6-2.5 31.7-2.5 31.7-32.5 35.6-32.5 35.6-35 25-35 25-32.5 29.1-32.5 29.1-18.9 8.25-18.9 8.25-32.5 12.3-32.5 12.3-35 1.75-35 1.75-32.5 5.65-32.5 5.65-2.5 1.75-2.5 1.75 0ZM69.6-4.85L69.6-4.85Q72.05-7.25 73.47-10.5 74.9-13.75 74.9-17.45L74.9-17.45Q74.9-21.15 73.47-24.43 72.05-27.7 69.6-30.1L69.6-30.1Q67.2-32.55 63.92-33.98 60.65-35.4 56.95-35.4L56.95-35.4Q53.25-35.4 50-33.98 46.75-32.55 44.35-30.1L44.35-30.1Q41.9-27.7 40.5-24.43 39.1-21.15 39.1-17.45L39.1-17.45Q39.1-13.75 40.5-10.5 41.9-7.25 44.35-4.85L44.35-4.85Q46.75-2.4 50-1 53.25 0.4 56.95 0.4L56.95 0.4Q60.65 0.4 63.92-1 67.2-2.4 69.6-4.85ZM46.2-6.6L46.2-6.6Q44.1-8.65 42.9-11.45 41.7-14.25 41.7-17.45L41.7-17.45Q41.7-20.6 42.9-23.43 44.1-26.25 46.2-28.35L46.2-28.35Q48.25-30.45 51.02-31.68 53.8-32.9 57-32.9L57-32.9Q60.15-32.9 62.92-31.68 65.7-30.45 67.8-28.35L67.8-28.35Q69.9-26.25 71.1-23.45 72.3-20.65 72.3-17.45L72.3-17.45Q72.3-14.25 71.07-11.45 69.85-8.65 67.8-6.6L67.8-6.6Q65.7-4.5 62.87-3.3 60.05-2.1 56.9-2.1L56.9-2.1Q53.75-2.1 51-3.3 48.25-4.5 46.2-6.6ZM86.8 0L97.35 0 97.35-2.5 93.55-2.5 93.55-32.5 103.55-32.5 103.55-27.3 106.05-27.3 106.05-35 78.4-35 78.4-27.3 80.9-27.3 80.9-32.5 90.95-32.5 90.95-2.5 86.8-2.5 86.8 0ZM109.54 0L134.59 0 134.59-7.7 132.09-7.7 132.09-2.5 115.54-2.5 115.54-16.4 131.94-16.4 131.94-18.9 115.54-18.9 115.54-32.5 131.39-32.5 131.39-27.3 133.89-27.3 133.89-35 109.54-35 109.54-32.5 112.94-32.5 112.94-2.5 109.54-2.5 109.54 0ZM138.09 0L163.04 0 163.04-7.7 160.54-7.7 160.54-2.5 143.94-2.5 143.94-32.5 148.09-32.5 148.09-35 138.09-35 138.09-32.5 141.34-32.5 141.34-2.5 138.09-2.5 138.09 0ZM181.54 0L192.09 0 192.09-2.5 188.29-2.5 188.29-27.45Q188.29-27.9 188.24-28.38 188.19-28.85 188.14-29.3L188.14-29.3Q188.44-28.85 188.64-28.6 188.84-28.35 189.14-27.95L189.14-27.95 203.99-8.55 218.34-27.3Q218.74-27.85 219.06-28.3 219.39-28.75 219.79-29.3L219.79-29.3Q219.74-28.75 219.71-28.38 219.69-28 219.69-27.45L219.69-27.45 219.69-2.5 215.94-2.5 215.94 0 226.49 0 226.49-2.5 222.29-2.5 222.29-32.5 226.39-32.5 226.39-35 221.04-35Q216.74-29.45 212.51-23.88 208.29-18.3 203.99-12.75L203.99-12.75Q200.09-17.75 195.66-23.53 191.24-29.3 186.89-35L186.89-35 181.54-35 181.54-32.5 185.69-32.5 185.69-2.5 181.54-2.5 181.54 0ZM260.48-4.85L260.48-4.85Q262.93-7.25 264.36-10.5 265.78-13.75 265.78-17.45L265.78-17.45Q265.78-21.15 264.36-24.43 262.93-27.7 260.48-30.1L260.48-30.1Q258.08-32.55 254.81-33.98 251.53-35.4 247.83-35.4L247.83-35.4Q244.13-35.4 240.88-33.98 237.63-32.55 235.23-30.1L235.23-30.1Q232.78-27.7 231.38-24.43 229.98-21.15 229.98-17.45L229.98-17.45Q229.98-13.75 231.38-10.5 232.78-7.25 235.23-4.85L235.23-4.85Q237.63-2.4 240.88-1 244.13 0.4 247.83 0.4L247.83 0.4Q251.53 0.4 254.81-1 258.08-2.4 260.48-4.85ZM237.08-6.6L237.08-6.6Q234.98-8.65 233.78-11.45 232.58-14.25 232.58-17.45L232.58-17.45Q232.58-20.6 233.78-23.43 234.98-26.25 237.08-28.35L237.08-28.35Q239.13-30.45 241.91-31.68 244.68-32.9 247.88-32.9L247.88-32.9Q251.03-32.9 253.81-31.68 256.58-30.45 258.68-28.35L258.68-28.35Q260.78-26.25 261.98-23.45 263.18-20.65 263.18-17.45L263.18-17.45Q263.18-14.25 261.96-11.45 260.73-8.65 258.68-6.6L258.68-6.6Q256.58-4.5 253.76-3.3 250.93-2.1 247.78-2.1L247.78-2.1Q244.63-2.1 241.88-3.3 239.13-4.5 237.08-6.6ZM299.78-4.85L299.78-4.85Q302.23-7.25 303.66-10.5 305.08-13.75 305.08-17.45L305.08-17.45Q305.08-21.15 303.66-24.43 302.23-27.7 299.78-30.1L299.78-30.1Q297.38-32.55 294.11-33.98 290.83-35.4 287.13-35.4L287.13-35.4Q283.43-35.4 280.18-33.98 276.93-32.55 274.53-30.1L274.53-30.1Q272.08-27.7 270.68-24.43 269.28-21.15 269.28-17.45L269.28-17.45Q269.28-13.75 270.68-10.5 272.08-7.25 274.53-4.85L274.53-4.85Q276.93-2.4 280.18-1 283.43 0.4 287.13 0.4L287.13 0.4Q290.83 0.4 294.11-1 297.38-2.4 299.78-4.85ZM276.38-6.6L276.38-6.6Q274.28-8.65 273.08-11.45 271.88-14.25 271.88-17.45L271.88-17.45Q271.88-20.6 273.08-23.43 274.28-26.25 276.38-28.35L276.38-28.35Q278.43-30.45 281.21-31.68 283.98-32.9 287.18-32.9L287.18-32.9Q290.33-32.9 293.11-31.68 295.88-30.45 297.98-28.35L297.98-28.35Q300.08-26.25 301.28-23.45 302.48-20.65 302.48-17.45L302.48-17.45Q302.48-14.25 301.26-11.45 300.03-8.65 297.98-6.6L297.98-6.6Q295.88-4.5 293.06-3.3 290.23-2.1 287.08-2.1L287.08-2.1Q283.93-2.1 281.18-3.3 278.43-4.5 276.38-6.6ZM343.28 1.6L343.28-32.5 347.48-32.5 347.48-35 336.93-35 336.93-32.5 340.68-32.5 340.68-5.8 340.83-4.2 339.88-5.5 314.08-35 308.58-35 308.58-32.5 312.73-32.5 312.73-2.5 308.58-2.5 308.58 0 319.13 0 319.13-2.5 315.33-2.5 315.33-28.85 315.18-30.3 316.13-29.15 343.28 1.6ZM350.98 0L375.93 0 375.93-7.7 373.43-7.7 373.43-2.5 356.83-2.5 356.83-32.5 360.98-32.5 360.98-35 350.98-35 350.98-32.5 354.23-32.5 354.23-2.5 350.98-2.5 350.98 0ZM379.42 0L389.97 0 389.97-2.5 385.92-2.5 385.92-32.5 389.97-32.5 389.97-35 379.42-35 379.42-32.5 383.32-32.5 383.32-2.5 379.42-2.5 379.42 0ZM420.42-2L420.42-2 420.42-14.9 411.12-14.9 411.12-12.4 417.82-12.4 417.82-3.5Q416.32-2.75 414.67-2.38 413.02-2 411.27-2L411.27-2Q408.12-2 405.37-3.2 402.62-4.4 400.57-6.5L400.57-6.5Q398.47-8.55 397.27-11.35 396.07-14.15 396.07-17.35L396.07-17.35Q396.07-20.5 397.27-23.33 398.47-26.15 400.57-28.25L400.57-28.25Q402.62-30.35 405.4-31.58 408.17-32.8 411.32-32.8L411.32-32.8Q413.42-32.8 415.37-32.25 417.32-31.7 419.02-30.7L419.02-30.7 420.47-32.8Q418.42-34 416.15-34.65 413.87-35.3 411.32-35.3L411.32-35.3Q407.62-35.3 404.37-33.88 401.12-32.45 398.72-30.05L398.72-30.05Q396.27-27.6 394.87-24.33 393.47-21.05 393.47-17.35L393.47-17.35Q393.47-13.65 394.87-10.4 396.27-7.15 398.72-4.75L398.72-4.75Q401.12-2.3 404.37-0.9 407.62 0.5 411.32 0.5L411.32 0.5Q413.87 0.5 416.15-0.18 418.42-0.85 420.42-2ZM423.92 0L434.47 0 434.47-2.5 430.42-2.5 430.42-16.4 451.27-16.4 451.27-2.5 447.17-2.5 447.17 0 457.77 0 457.77-2.5 453.87-2.5 453.87-32.5 457.77-32.5 457.77-35 447.17-35 447.17-32.5 451.27-32.5 451.27-18.9 430.42-18.9 430.42-32.5 434.47-32.5 434.47-35 423.92-35 423.92-32.5 427.82-32.5 427.82-2.5 423.92-2.5 423.92 0ZM469.67 0L480.22 0 480.22-2.5 476.42-2.5 476.42-32.5 486.42-32.5 486.42-27.3 488.92-27.3 488.92-35 461.27-35 461.27-27.3 463.77-27.3 463.77-32.5 473.82-32.5 473.82-2.5 469.67-2.5 469.67 0Z" opacity="1" transform="matrix(1,0,0,1,0,0)" fill="#2a160c" class="wordmark-text-0" data-fill-palette-color="primary" id="text-0"></path></svg></g></svg></g></svg></g></svg></g><g transform="matrix(1,0,0,1,93.55891094615524,0)"><svg viewBox="0 0 58.53569490768948 25.6542552591133" height="25.6542552591133" width="58.53569490768948"><g><svg xmlns="http://www.w3.org/2000/svg" xmlns:xlink="http://www.w3.org/1999/xlink" version="1.1" x="8" y="0" viewBox="84.69999999999987 289.40000000000015 1030.6355685467536 621.5999999999999" enable-background="new 0 0 1200 1200" xml:space="preserve" height="25.6542552591133" width="42.53569490768948" class="icon-icon-0" data-fill-palette-color="accent" id="icon-0"><g fill="#99592a" data-fill-palette-color="accent"><path d="M91.6 706.2C91.6 706.2 91.6 706.2 91.6 706.2c87.1-0.6 131.9-32.1 172.5-79.3 21.6-25.1 38.9-39.7 57.8-48.8 19.8-9.5 43.4-13.8 76.7-14 0.3 0 0.5 0 0.8 0 39.5 0 71.9 19.5 92.2 35.9 11.5 9.3 20.5 18.7 26.6 25.7 2.1 2.7 4.3 5.4 6.6 8 1.6 2 2.4 3.2 2.4 3.2 0.6 0.9 1.4 1.6 2.4 2.1 1.7 1.9 3.5 3.7 5.3 5.5 19.7 19.7 42.9 35 68.9 45.6 25 10.1 51.3 15.3 78.1 15.3 48.3 0 95.5-17 132.8-47.8 4.9-4 6.1-10.9 3-16.4-2.4-4.2-6.7-6.6-11.3-6.6-1.4 0-2.9 0.2-4.3 0.7-17.6 6.2-36 9.3-54.5 9.3-0.7 0-1.4 0-2 0-20.5-0.3-40.7-4.3-59.8-12.1-40.8-16.6-72.8-48-90-88.6-17.2-40.6-17.5-85.4-1-126.3 21-51.7 66.2-89.1 121.1-99.9 6.2-1.2 10.6-6.7 10.5-13-0.1-6.3-4.7-11.6-10.9-12.6-11-1.8-22.2-2.7-33.4-2.7v13l0-13c-40.9 0-80.7 12-114.9 34.6-35.1 23.2-62 56.2-77.9 95.3-10.5 26-15.7 53.3-15.3 81.2 0.4 26.9 5.9 53.1 16.5 78 0.9 2.2 1.9 4.4 2.9 6.5-29.9-22.3-62.5-33.9-94.7-33.7-35.3 0.2-60.6 5-82.2 15.3-20.7 9.9-39.2 25.5-62.1 52.1-39.3 45.8-80.2 74.3-162.6 74.8-3.6 0-6.5 3-6.5 6.5C85.1 703.3 88 706.2 91.6 706.2zM501.1 423.8C531.9 348 604.9 302 681.9 302c10.4 0 20.8 0.8 31.3 2.5-56.9 11.2-107.2 50-130.6 107.8-36.9 91.1 7 194.9 98.1 231.8 21.2 8.6 43 12.8 64.6 13.1 0.7 0 1.5 0 2.2 0 20.2 0 40.1-3.5 58.8-10-34.8 28.8-78.9 44.9-124.5 44.9-24.4 0-49.2-4.6-73.2-14.3-29.4-11.9-54.3-30.2-73.8-52.6-1.6-2.1-3.8-4.8-6.6-8C486.7 564 474 490.8 501.1 423.8z" fill="#99592a" data-fill-palette-color="accent"></path><path d="M1114.3 723.7c-0.5-0.8-12.8-19.4-35.5-38.1-30.2-24.9-64.5-37.9-99.2-37.7-34.7 0.2-60 5.5-82.1 16.9-20.1 10.4-37.9 25.9-61.6 53.5-39.3 45.8-80.2 74.3-162.6 74.8-0.4 0-0.8 0-1.2 0-71.6 0-111.2-42.6-128.1-60.9-1.6-1.7-3-3.2-4.2-4.5-2.4-3.4-16.2-22.6-39-41.9-32.8-27.9-68.6-42.5-103.3-42.3-34.7 0.2-60 5.5-82.1 16.9-20.1 10.4-37.9 25.9-61.6 53.5-2.3 2.7-2 6.8 0.7 9.2 2.7 2.3 6.8 2 9.2-0.7 22.5-26.2 39.2-40.8 57.7-50.4 20.2-10.5 43.7-15.2 76.2-15.5 0.3 0 0.5 0 0.8 0 39.5 0 72.8 21.1 93.8 39 23.3 19.7 37.1 39.9 37.3 40.1 0.2 0.3 0.5 0.6 0.8 0.9 1.2 1.2 2.6 2.8 4.3 4.6 8.9 9.6 23.9 25.8 46.6 39.7 27.4 16.8 58 25.3 91 25.3 0.4 0 0.9 0 1.3 0 87.1-0.6 131.9-32.1 172.4-79.3 22.5-26.2 39.2-40.8 57.7-50.4 20.2-10.5 43.7-15.2 76.2-15.5 32-0.2 62.5 11.4 90.6 34.5 21.2 17.4 33 35.2 33.2 35.4 2 3 6 3.8 9 1.9C1115.4 730.7 1116.2 726.7 1114.3 723.7z" fill="#99592a" data-fill-palette-color="accent"></path><path d="M845.1 822.5c-2.7-2.3-6.8-2-9.2 0.7-39.3 45.8-80.2 74.3-162.6 74.8-0.4 0-0.8 0-1.2 0-71.6 0-111.2-42.6-128.1-60.9-1.6-1.7-3-3.2-4.2-4.5-2.4-3.4-16.2-22.6-39-41.9-32.8-27.9-68.6-42.5-103.3-42.3-34.7 0.2-60 5.5-82.1 16.9-20.1 10.4-37.9 25.9-61.6 53.5-39.3 45.8-80.2 74.3-162.6 74.8-3.6 0-6.5 3-6.5 6.5 0 3.6 2.9 6.5 6.5 6.5 0 0 0 0 0 0 87.1-0.6 131.9-32.1 172.4-79.3 22.5-26.2 39.2-40.8 57.7-50.4 20.2-10.5 43.7-15.2 76.2-15.5 0.3 0 0.5 0 0.8 0 39.5 0 72.8 21.1 93.8 39 23.3 19.7 37.1 39.9 37.3 40.1 0.2 0.3 0.5 0.6 0.8 0.9 1.2 1.2 2.6 2.8 4.3 4.6 8.9 9.6 23.9 25.8 46.6 39.7 27.4 16.8 58 25.3 91 25.3 0.4 0 0.9 0 1.3 0 87.1-0.6 131.9-32.1 172.4-79.3C848.1 828.9 847.8 824.8 845.1 822.5z" fill="#99592a" data-fill-palette-color="accent"></path><polygon points="699.4,476.3 696.2,453.8 692.9,476.3 670.5,476.2 690.9,482.4 680.3,502.5 696.2,486.2 712,502.5 701.4,482.4    721.8,476.2  " fill="#99592a" data-fill-palette-color="accent"></polygon></g></svg></g></svg></g><g><rect width="46.26144278615526" height="1.674042846930727" y="22.98021241218257" x="152.0946058538447" fill="#99592a" data-fill-palette-color="secondary"></rect><rect width="46.26144278615526" height="1.674042846930727" y="22.98021241218257" x="47.29746815999998" fill="#99592a" data-fill-palette-color="secondary"></rect></g></svg></g></svg></g><g><path d="M79.688 92.047A122.216 122.216 0 0 1 315.832 92.047L314.167 92.047A120.55 120.55 0 0 0 81.353 92.047L79.688 92.047M79.688 155.153A122.216 122.216 0 0 0 315.832 155.153L314.167 155.153A120.55 120.55 0 0 1 81.353 155.153L79.688 155.153" fill="#2a160c" stroke="transparent" data-fill-palette-color="tertiary"></path></g></svg></g><defs></defs></svg><rect width="395.52" height="247.2" fill="none" stroke="none" visibility="hidden"></rect></g></svg></g></svg>